<?xml version="1.0" encoding="UTF-8"?>
<svg version="1.1" xmlns="http://www.w3.org/2000/svg" width="2048" height="1140">
<path d="M0 0 C675.84 0 1351.68 0 2048 0 C2048 376.2 2048 752.4 2048 1140 C1372.16 1140 696.32 1140 0 1140 C0 763.8 0 387.6 0 0 Z " fill="#000000" transform="translate(0,0)"/>
<path d="M0 0 C0.79639893 0.66104736 0.79639893 0.66104736 1.60888672 1.33544922 C12.62027464 10.50798195 22.88529857 20.01871201 31.83203125 31.27734375 C33.23796131 33.04298924 34.67162233 34.78703823 36.13671875 36.50390625 C77.70334585 85.38387169 95.25594355 151.75076354 90.53125 214.98828125 C86.01737022 265.33845983 66.32679489 313.1962802 34 352 C33.55930176 352.53093262 33.11860352 353.06186523 32.66455078 353.60888672 C23.49201805 364.62027464 13.98128799 374.88529857 2.72265625 383.83203125 C0.95701076 385.23796131 -0.78703823 386.67162233 -2.50390625 388.13671875 C-51.38387169 429.70334585 -117.75076354 447.25594355 -180.98828125 442.53125 C-231.33845983 438.01737022 -279.1962802 418.32679489 -318 386 C-318.53093262 385.55930176 -319.06186523 385.11860352 -319.60888672 384.66455078 C-330.62027464 375.49201805 -340.88529857 365.98128799 -349.83203125 354.72265625 C-351.23796131 352.95701076 -352.67162233 351.21296177 -354.13671875 349.49609375 C-395.74594529 300.56603382 -413.25924749 234.30631869 -408.53125 171.015625 C-404.01953606 120.66431943 -384.32723791 72.80425159 -352 34 C-351.55930176 33.46906738 -351.11860352 32.93813477 -350.66455078 32.39111328 C-341.49201805 21.37972536 -331.98128799 11.11470143 -320.72265625 2.16796875 C-318.95701076 0.76203869 -317.21296177 -0.67162233 -315.49609375 -2.13671875 C-235.42266635 -70.22969442 -114.00481244 -73.95578241 0 0 Z " fill="#FFFFFF" transform="translate(1154,312)"/>
<path d="M0 0 C0.84175781 0.63164062 1.68351562 1.26328125 2.55078125 1.9140625 C40.02505195 30.96110486 64.09306902 73.03306311 70.25 120.0625 C75.47219749 166.49118536 62.91203094 213.20753987 34 250 C4.57492221 286.39316625 -36.85647903 310.76339053 -83.65283203 316.31469727 C-127.79529385 320.75098712 -172.42554401 309.9944391 -208 283 C-208.84175781 282.36835937 -209.68351563 281.73671875 -210.55078125 281.0859375 C-248.65255442 251.55250567 -272.23631816 209.27642262 -278.3125 161.54516602 C-283.50986026 114.80140721 -270.07064615 68.25231439 -240.859375 31.4609375 C-211.200094 -4.95430102 -168.90028251 -28.33954126 -122.13671875 -33.58984375 C-78.70883989 -37.59584055 -34.91387929 -26.49318344 0 0 Z " fill="#000000" transform="translate(1099,364)"/>
<path d="M0 0 C0.33 87.78 0.66 175.56 1 266 C26.74 240.26 52.48 214.52 79 188 C115.20408986 181.99166168 136.38124475 180.17589631 171.375 183.125 C198.64125 184.73375 225.9075 186.3425 254 188 C254 127.94 254 67.88 254 6 C278.75 6 303.5 6 329 6 C330.70691267 58.60588733 332.04414678 111.20495378 332.82989971 163.83320062 C332.9236669 170.09058802 333.02074451 176.34791996 333.11987305 182.60522461 C333.13954633 183.85058138 333.15921961 185.09593814 333.17948905 186.37903299 C333.50308883 206.36727097 334.09266381 226.33880147 334.78645971 246.31722788 C335.49595231 266.92457011 335.90602157 287.52337797 336.05663711 308.14242285 C336.1490885 319.68812025 336.36647997 331.1992262 336.92975426 342.73237038 C338.95658381 385.43572637 339.41352809 421.50738618 309.35703421 454.60958462 C292.54321348 472.6311883 273.76432816 489.26712948 254 504 C253.67 504 253.34 504 253 504 C253 426.12 253 348.24 253 268 C169.51 268 86.02 268 0 268 C0 345.22 0 422.44 0 502 C-25.41 502 -50.82 502 -77 502 C-78.6859072 449.02156063 -80.08471843 396.06904072 -80.88096504 343.0713179 C-80.9759822 336.77015453 -81.0743542 330.46904773 -81.17480469 324.16796875 C-81.19474028 322.91390245 -81.21467587 321.65983615 -81.23521557 320.36776784 C-81.56311031 300.24099843 -82.16053192 280.13127087 -82.8636125 260.01450869 C-83.5826264 239.26367138 -83.99811337 218.52153747 -84.1507256 197.75876451 C-84.24440132 186.13279747 -84.46461423 174.54210935 -85.03548431 162.92894745 C-87.09651742 119.78512955 -87.4616633 83.51084275 -57.09460905 50.08594981 C-10.34558474 0 -10.34558474 0 0 0 Z " fill="#FFFFFF" transform="translate(404,252)"/>
<path d="M0 0 C0 43.89 0 87.78 0 133 C109.23 133 218.46 133 331 133 C331 158.08 331 183.16 331 209 C196.69 209 62.38 209 -76 209 C-76 75 -76 75 -38.5625 29.125 C-3.37359928 0 -3.37359928 0 0 0 Z " fill="#FFFFFF" transform="translate(1333,544)"/>
<path d="M0 0 C0.69335955 0.0016914 1.38671909 0.00338281 2.10108954 0.00512546 C20.00891246 0.06736661 37.8675398 0.82701016 55.74485934 1.81969774 C66.12188939 2.38947296 76.49430052 2.77232477 86.88354492 3.03344727 C87.99361019 3.06142732 87.99361019 3.06142732 89.12610101 3.08997262 C92.84178192 3.18268606 96.55752815 3.27239583 100.27331817 3.36061776 C130.71433561 4.08719323 161.09025754 5.38930359 191.50390625 6.93359375 C191.50390625 32.67359375 191.50390625 58.41359375 191.50390625 84.93359375 C82.27390625 84.93359375 -26.95609375 84.93359375 -139.49609375 84.93359375 C-137.51609375 82.62359375 -135.53609375 80.31359375 -133.49609375 77.93359375 C-131.76341447 75.5339423 -130.06410793 73.12637142 -128.38316345 70.6917572 C-93.99059421 22.06337677 -59.83980314 -0.19614193 0 0 Z " fill="#FFFFFF" transform="translate(1472.49609375,249.06640625)"/>
<path d="M0 0 C1.044186 0.0024953 1.044186 0.0024953 2.10946667 0.005041 C20.09769888 0.06636995 38.0383886 0.81573564 55.9971211 1.7940681 C66.42239097 2.35566323 76.84319476 2.73322303 87.28027344 2.99072266 C88.02356667 3.0091133 88.76685989 3.02750394 89.53267716 3.04645188 C93.26461467 3.13785845 96.99661538 3.22630496 100.72865844 3.31328511 C131.30983908 4.02979635 161.82809616 5.31372181 192.3828125 6.8359375 C192.3828125 32.2459375 192.3828125 57.6559375 192.3828125 83.8359375 C83.1528125 83.8359375 -26.0771875 83.8359375 -138.6171875 83.8359375 C-136.6371875 81.5259375 -134.6571875 79.2159375 -132.6171875 76.8359375 C-130.91595776 74.46679257 -129.24978491 72.09046901 -127.60299683 69.68490601 C-93.54574788 21.16402404 -59.40009519 -0.19063573 0 0 Z " fill="#FFFFFF" transform="translate(1471.6171875,460.1640625)"/>
<path d="M0 0 C0 42.24 0 84.48 0 128 C-24.75 128 -49.5 128 -75 128 C-83.42942717 87.2197983 -83.42942717 87.2197983 -73.48281097 71.62060547 C-63.39588126 57.55290824 -50.57409365 45.49734266 -38.0625 33.625 C-37.17965584 32.78634651 -36.29681168 31.94769302 -35.38721466 31.08362579 C-26.36666165 22.54588534 -17.22468267 14.14820165 -7.90649414 5.93603516 C-6.87399001 5.02518882 -6.87399001 5.02518882 -5.82062721 4.09594154 C-1.12628083 0 -1.12628083 0 0 0 Z " fill="#FFFFFF" transform="translate(1333,334)"/>
<path d="M0 0 C6.59734333 3.93749892 10.33686602 9.32949533 13.21875 16.32421875 C13.63125 17.23171875 14.04375 18.13921875 14.46875 19.07421875 C16.77977738 29.08867071 15.4925182 40.25610871 10.60546875 49.33984375 C6.78004617 54.81396958 1.12601412 59.96092815 -5.3671875 61.9140625 C-16.38679727 63.7863263 -25.52182993 62.81152849 -34.78125 56.32421875 C-40.94230409 50.96996936 -43.66808348 44.33310708 -44.78125 36.32421875 C-45.51681823 25.177531 -44.56568282 15.82335911 -37.3046875 7.00390625 C-27.77052061 -3.50812392 -12.80804513 -5.9258001 0 0 Z " fill="#020203" transform="translate(863.78125,800.67578125)"/>
<path d="M0 0 C2.5 1.625 2.5 1.625 4.5 3.625 C4.83 2.305 5.16 0.985 5.5 -0.375 C8.14 -0.375 10.78 -0.375 13.5 -0.375 C13.5 21.405 13.5 43.185 13.5 65.625 C10.86 65.625 8.22 65.625 5.5 65.625 C5.005 52.755 5.005 52.755 4.5 39.625 C1.53 42.1 1.53 42.1 -1.5 44.625 C-6.77411985 46.38303995 -12.56922301 46.66338787 -17.859375 44.7890625 C-24.15324595 41.26354832 -26.29908225 36.22775325 -28.5 29.625 C-29.18404472 20.00890974 -28.76311252 12.48276148 -22.6875 4.8125 C-16.38499633 -1.93688046 -8.5444777 -3.3567591 0 0 Z " fill="#F4F8F4" transform="translate(1331.5,817.375)"/>
<path d="M0 0 C5.15281734 2.90934419 7.8467805 6.74354354 9.6875 12.3125 C10.53848889 20.97081718 10.57776222 29.80051387 5.6875 37.3125 C1.46419221 42.02910399 -2.093225 44.8367592 -8.42578125 45.55078125 C-14.27719477 45.74825346 -17.52189056 44.70584836 -22.3125 41.3125 C-22.6425 40.6525 -22.9725 39.9925 -23.3125 39.3125 C-23.6425 47.8925 -23.9725 56.4725 -24.3125 65.3125 C-26.9525 65.3125 -29.5925 65.3125 -32.3125 65.3125 C-32.3125 43.5325 -32.3125 21.7525 -32.3125 -0.6875 C-29.6725 -0.6875 -27.0325 -0.6875 -24.3125 -0.6875 C-23.9825 1.2925 -23.6525 3.2725 -23.3125 5.3125 C-22.84199219 4.89097656 -22.37148438 4.46945312 -21.88671875 4.03515625 C-21.26410156 3.48730469 -20.64148438 2.93945312 -20 2.375 C-19.38511719 1.82972656 -18.77023437 1.28445313 -18.13671875 0.72265625 C-12.98204481 -3.26200605 -5.64153261 -2.62003762 0 0 Z " fill="#F2F7F4" transform="translate(922.3125,817.6875)"/>
<path d="M0 0 C5.42253116 2.75968104 7.93486972 6.28201227 10.9375 11.5625 C13.71901489 20.49262676 12.38845391 28.17490747 8.125 36.375 C5.0703804 41.57916673 0.81536618 43.79387299 -4.875 45.375 C-12.25949052 46.33566302 -18.79418856 45.94267929 -24.875 41.375 C-30.76694647 35.48305353 -33.02038328 30.2282687 -33.375 22.0625 C-33.18850964 15.57263562 -31.92209236 10.52922797 -27.875 5.375 C-19.73972659 -1.60623287 -10.23187768 -4.13738678 0 0 Z " fill="#F2F5F4" transform="translate(658.875,817.625)"/>
<path d="M0 0 C6.59734333 3.93749892 10.33686602 9.32949533 13.21875 16.32421875 C13.63125 17.23171875 14.04375 18.13921875 14.46875 19.07421875 C16.77977738 29.08867071 15.4925182 40.25610871 10.60546875 49.33984375 C6.78004617 54.81396958 1.12601412 59.96092815 -5.3671875 61.9140625 C-16.38679727 63.7863263 -25.52182993 62.81152849 -34.78125 56.32421875 C-40.94230409 50.96996936 -43.66808348 44.33310708 -44.78125 36.32421875 C-45.51681823 25.177531 -44.56568282 15.82335911 -37.3046875 7.00390625 C-27.77052061 -3.50812392 -12.80804513 -5.9258001 0 0 Z M-30.78125 11.32421875 C-36.75339704 19.08133711 -36.86733427 28.94035706 -35.78125 38.32421875 C-33.52603364 46.03278157 -29.37783322 50.64287854 -22.53125 54.63671875 C-15.80412408 56.31850023 -9.59514564 56.08687107 -3.53125 52.578125 C2.20710322 48.46649245 4.95953146 43.09131687 6.21875 36.32421875 C7.14853525 27.00593141 6.93047591 19.0439733 1.21875 11.32421875 C-2.30101573 7.53167117 -5.5997319 5.54573537 -10.8203125 5.015625 C-19.10632403 4.71776184 -24.77932177 5.2826302 -30.78125 11.32421875 Z " fill="#F5F7F4" transform="translate(863.78125,800.67578125)"/>
<path d="M0 0 C4.12909332 2.14101135 6.11945033 3.81709513 8 8 C8.45890625 7.59007812 8.9178125 7.18015625 9.390625 6.7578125 C10.00421875 6.21898437 10.6178125 5.68015625 11.25 5.125 C11.85328125 4.59132813 12.4565625 4.05765625 13.078125 3.5078125 C17.89059471 -0.26782431 22.03146752 -0.65394356 28 0 C33.19914842 1.76574852 35.40900108 4.20185385 38 9 C39.12329389 13.17426076 39.1148182 17.1806313 39.09765625 21.48828125 C39.0962413 22.19147995 39.09482635 22.89467865 39.09336853 23.6191864 C39.08780109 25.85033544 39.07525475 28.08138164 39.0625 30.3125 C39.05748079 31.83137875 39.05291862 33.35025909 39.04882812 34.86914062 C39.03784236 38.57946012 39.02060034 42.28972001 39 46 C36.36 46 33.72 46 31 46 C30.98541748 45.12786865 30.97083496 44.2557373 30.95581055 43.35717773 C30.89442628 40.09340004 30.82021612 36.83042043 30.73754883 33.56713867 C30.70448006 32.1600222 30.67639296 30.75277884 30.65356445 29.34545898 C30.61968201 27.31179176 30.56735782 25.27926865 30.51171875 23.24609375 C30.48553467 22.02591553 30.45935059 20.8057373 30.43237305 19.54858398 C29.92821536 15.41084715 28.894727 12.69856517 27 9 C23.76313815 7.38156908 20.48624071 7.27870882 17 8 C13.89677689 10.39175245 12.23623246 13.29130262 11 17 C10.84890907 19.20959253 10.75126199 21.42300047 10.68359375 23.63671875 C10.62075195 25.58481445 10.62075195 25.58481445 10.55664062 27.57226562 C10.51683013 28.94400761 10.47711784 30.31575244 10.4375 31.6875 C10.39429165 33.07097645 10.35067661 34.45444027 10.30664062 35.83789062 C10.20041972 39.22515719 10.09837642 42.61249799 10 46 C7.36 46 4.72 46 2 46 C1.97494385 45.0212793 1.9498877 44.04255859 1.92407227 43.03417969 C1.82976017 39.39619296 1.72959797 35.75838657 1.62768555 32.12060547 C1.58442662 30.54740626 1.54274526 28.97416283 1.50268555 27.40087891 C1.44476338 25.13690885 1.38113286 22.87315949 1.31640625 20.609375 C1.29969376 19.90818542 1.28298126 19.20699585 1.26576233 18.48455811 C1.21765961 13.63173627 1.21765961 13.63173627 0 9 C-3.7169732 7.76100893 -7.14438861 7.31606114 -11 8 C-14.21954645 10.53453657 -15.70432435 12.11297305 -17 16 C-17.15145099 18.2825699 -17.24886979 20.56887706 -17.31640625 22.85546875 C-17.33718735 23.51710526 -17.35796844 24.17874176 -17.37937927 24.86042786 C-17.44464727 26.96934852 -17.50365344 29.07839135 -17.5625 31.1875 C-17.60570689 32.61915315 -17.64932188 34.05079404 -17.69335938 35.48242188 C-17.80030506 38.98815154 -17.90163641 42.49401786 -18 46 C-20.64 46 -23.28 46 -26 46 C-26 31.15 -26 16.3 -26 1 C-23.36 1 -20.72 1 -18 1 C-17.67 2.65 -17.34 4.3 -17 6 C-16.071875 5.195625 -15.14375 4.39125 -14.1875 3.5625 C-9.95253684 -0.10780141 -5.50609624 -0.75982046 0 0 Z " fill="#F3F6F5" transform="translate(577,816)"/>
<path d="M0 0 C3.3 0 6.6 0 10 0 C10 8.25 10 16.5 10 25 C18.91 25 27.82 25 37 25 C37 16.75 37 8.5 37 0 C39.97 0 42.94 0 46 0 C46 19.14 46 38.28 46 58 C43.03 58 40.06 58 37 58 C37 49.75 37 41.5 37 33 C28.09 33 19.18 33 10 33 C10 41.25 10 49.5 10 58 C6.7 58 3.4 58 0 58 C0 38.86 0 19.72 0 0 Z " fill="#F6F8F7" transform="translate(413,804)"/>
<path d="M0 0 C4.28994146 2.53894494 6.48891414 5.09174241 8.0625 9.8125 C8.14744728 12.47144107 8.17844796 15.10335377 8.16015625 17.76171875 C8.1587413 18.53433548 8.15732635 19.30695221 8.15586853 20.10298157 C8.15027466 22.56869389 8.13772333 25.03431515 8.125 27.5 C8.11998421 29.17252473 8.11542144 30.84505088 8.11132812 32.51757812 C8.10030724 36.61592046 8.08304684 40.71419479 8.0625 44.8125 C5.4225 44.8125 2.7825 44.8125 0.0625 44.8125 C-0.4325 42.3375 -0.4325 42.3375 -0.9375 39.8125 C-1.865625 40.616875 -2.79375 41.42125 -3.75 42.25 C-7.82606721 45.78259158 -11.4872022 46.1037118 -16.72265625 46.02734375 C-20.94233486 45.61802748 -23.15201321 43.49183992 -26.25 40.8125 C-28.8323618 36.22163457 -28.78298741 31.9533654 -27.9375 26.8125 C-26.52245664 23.43136275 -24.35318971 21.57133368 -21.09375 19.82421875 C-14.35203228 17.17029629 -7.09730011 17.10785449 0.0625 16.8125 C-0.205625 15.53375 -0.47375 14.255 -0.75 12.9375 C-0.90082031 12.21820312 -1.05164062 11.49890625 -1.20703125 10.7578125 C-1.86058838 8.44203451 -1.86058838 8.44203451 -4.9375 6.8125 C-12.33841249 5.78426337 -17.60872177 6.99135088 -23.9375 10.8125 C-23.9375 8.1725 -23.9375 5.5325 -23.9375 2.8125 C-16.31013244 -1.40609342 -8.42036039 -3.13735055 0 0 Z " fill="#F5F7F3" transform="translate(1434.9375,817.1875)"/>
<path d="M0 0 C4.28994146 2.53894494 6.48891414 5.09174241 8.0625 9.8125 C8.14744728 12.47144107 8.17844796 15.10335377 8.16015625 17.76171875 C8.1587413 18.53433548 8.15732635 19.30695221 8.15586853 20.10298157 C8.15027466 22.56869389 8.13772333 25.03431515 8.125 27.5 C8.11998421 29.17252473 8.11542144 30.84505088 8.11132812 32.51757812 C8.10030724 36.61592046 8.08304684 40.71419479 8.0625 44.8125 C5.4225 44.8125 2.7825 44.8125 0.0625 44.8125 C-0.4325 42.3375 -0.4325 42.3375 -0.9375 39.8125 C-1.865625 40.616875 -2.79375 41.42125 -3.75 42.25 C-7.82606721 45.78259158 -11.4872022 46.1037118 -16.72265625 46.02734375 C-20.94233486 45.61802748 -23.15201321 43.49183992 -26.25 40.8125 C-28.8323618 36.22163457 -28.78298741 31.9533654 -27.9375 26.8125 C-26.52245664 23.43136275 -24.35318971 21.57133368 -21.09375 19.82421875 C-14.35203228 17.17029629 -7.09730011 17.10785449 0.0625 16.8125 C-0.205625 15.53375 -0.47375 14.255 -0.75 12.9375 C-0.90082031 12.21820312 -1.05164063 11.49890625 -1.20703125 10.7578125 C-1.86058838 8.44203451 -1.86058838 8.44203451 -4.9375 6.8125 C-12.33841249 5.78426337 -17.60872177 6.99135088 -23.9375 10.8125 C-23.9375 8.1725 -23.9375 5.5325 -23.9375 2.8125 C-16.31013244 -1.40609342 -8.42036039 -3.13735055 0 0 Z " fill="#F5F7F3" transform="translate(497.9375,817.1875)"/>
<path d="M0 0 C5.97422203 3.49435628 8.75920269 7.55425672 11.3125 13.9375 C11.3125 17.5675 11.3125 21.1975 11.3125 24.9375 C1.0825 24.9375 -9.1475 24.9375 -19.6875 24.9375 C-18.0380632 33.02893198 -18.0380632 33.02893198 -12.6875 37.9375 C-5.51910294 40.17849403 0.80178785 38.19285608 7.3125 34.9375 C7.3125 37.5775 7.3125 40.2175 7.3125 42.9375 C-0.1195505 46.43493553 -8.14375966 47.56646635 -16.16015625 45.2109375 C-21.86788001 42.58645144 -24.63982721 39.03284559 -27.4375 33.4375 C-29.98109307 25.94803151 -29.91772032 17.73525699 -26.6875 10.5 C-20.84215679 0.24559791 -11.11334431 -3.20215006 0 0 Z " fill="#F2F3F2" transform="translate(1117.6875,817.0625)"/>
<path d="M0 0 C5.97422203 3.49435628 8.75920269 7.55425672 11.3125 13.9375 C11.3125 17.5675 11.3125 21.1975 11.3125 24.9375 C1.0825 24.9375 -9.1475 24.9375 -19.6875 24.9375 C-18.0380632 33.02893198 -18.0380632 33.02893198 -12.6875 37.9375 C-5.51910294 40.17849403 0.80178785 38.19285608 7.3125 34.9375 C7.3125 37.5775 7.3125 40.2175 7.3125 42.9375 C-0.1195505 46.43493553 -8.14375966 47.56646635 -16.16015625 45.2109375 C-21.86788001 42.58645144 -24.63982721 39.03284559 -27.4375 33.4375 C-29.98109307 25.94803151 -29.91772032 17.73525699 -26.6875 10.5 C-20.84215679 0.24559791 -11.11334431 -3.20215006 0 0 Z " fill="#F2F3F2" transform="translate(968.6875,817.0625)"/>
<path d="M0 0 C10.56 0 21.12 0 32 0 C32 2.31 32 4.62 32 7 C24.08 7 16.16 7 8 7 C8 13.93 8 20.86 8 28 C15.59 28 23.18 28 31 28 C31 30.31 31 32.62 31 35 C23.41 35 15.82 35 8 35 C8 41.93 8 48.86 8 56 C16.58 56 25.16 56 34 56 C34 58.31 34 60.62 34 63 C22.78 63 11.56 63 0 63 C0 42.21 0 21.42 0 0 Z " fill="#F6FAF9" transform="translate(1261,799)"/>
<path d="M0 0 C2.97 0 5.94 0 9 0 C10.57247211 4.50032696 12.13888352 9.00269981 13.69970703 13.50708008 C14.23157201 15.03923413 14.76509085 16.5708151 15.30029297 18.10180664 C16.06913435 20.30206236 16.83201147 22.50430801 17.59375 24.70703125 C17.83436157 25.39150833 18.07497314 26.07598541 18.32287598 26.78120422 C19.31225239 29.65837218 20 31.93309937 20 35 C20.66 35 21.32 35 22 35 C22.1700354 33.98063354 22.1700354 33.98063354 22.34350586 32.94067383 C23.11709862 29.47547306 24.27106614 26.27930411 25.50390625 22.94921875 C25.86801857 21.96100883 25.86801857 21.96100883 26.23948669 20.95283508 C27.01036472 18.86309241 27.78634796 16.77528883 28.5625 14.6875 C29.08822969 13.26509923 29.61362391 11.84257443 30.13867188 10.41992188 C31.42190157 6.94517045 32.70971465 3.47213854 34 0 C36.64 0 39.28 0 42 0 C41.38710229 3.47754303 40.48971397 6.59793698 39.18994141 9.87866211 C38.81930573 10.8199144 38.44867004 11.76116669 38.06680298 12.73094177 C37.66577362 13.73625443 37.26474426 14.74156708 36.8515625 15.77734375 C36.43836761 16.82144913 36.02517273 17.8655545 35.59945679 18.94129944 C34.72555746 21.14681026 33.84958193 23.3514994 32.97167969 25.55541992 C31.63210732 28.91965051 30.29992271 32.28673513 28.96875 35.65429688 C28.11762591 37.79965315 27.2660774 39.9448411 26.4140625 42.08984375 C26.0170816 43.09313217 25.62010071 44.09642059 25.21109009 45.13011169 C18.85850822 61.04618997 18.85850822 61.04618997 12.13671875 65.1328125 C9.6782321 66.13058953 7.89128246 66.20268478 5.25 66.125 C4.45078125 66.10695313 3.6515625 66.08890625 2.828125 66.0703125 C2.22484375 66.04710937 1.6215625 66.02390625 1 66 C1 63.69 1 61.38 1 59 C1.66386719 58.97164062 2.32773438 58.94328125 3.01171875 58.9140625 C7.17039471 58.46480408 10.02912029 58.15082724 12.8125 54.8515625 C15.54109491 49.6889369 16.27214427 46.74986064 15 41 C13.98199546 37.94084831 12.80753677 34.95035737 11.62109375 31.953125 C11.28956802 31.10071228 10.9580423 30.24829956 10.61647034 29.37005615 C9.56224666 26.66121303 8.5004653 23.95542356 7.4375 21.25 C6.37181816 18.52997855 5.30782825 15.8093341 4.24781799 13.08709717 C3.58916825 11.39631301 2.92710411 9.70685426 2.26133728 8.01885986 C0 2.2240657 0 2.2240657 0 0 Z " fill="#F2F5F2" transform="translate(1525,817)"/>
<path d="M0 0 C2.97 0 5.94 0 9 0 C10.57247211 4.50032696 12.13888352 9.00269981 13.69970703 13.50708008 C14.23157201 15.03923413 14.76509085 16.5708151 15.30029297 18.10180664 C16.06913435 20.30206236 16.83201147 22.50430801 17.59375 24.70703125 C17.83436157 25.39150833 18.07497314 26.07598541 18.32287598 26.78120422 C19.31225239 29.65837218 20 31.93309937 20 35 C20.66 35 21.32 35 22 35 C22.1700354 33.98063354 22.1700354 33.98063354 22.34350586 32.94067383 C23.11709862 29.47547306 24.27106614 26.27930411 25.50390625 22.94921875 C25.86801857 21.96100883 25.86801857 21.96100883 26.23948669 20.95283508 C27.01036472 18.86309241 27.78634796 16.77528883 28.5625 14.6875 C29.08822969 13.26509923 29.61362391 11.84257443 30.13867188 10.41992188 C31.42190157 6.94517045 32.70971465 3.47213854 34 0 C36.64 0 39.28 0 42 0 C41.38710229 3.47754303 40.48971397 6.59793698 39.18994141 9.87866211 C38.81930573 10.8199144 38.44867004 11.76116669 38.06680298 12.73094177 C37.66577362 13.73625443 37.26474426 14.74156708 36.8515625 15.77734375 C36.43836761 16.82144913 36.02517273 17.8655545 35.59945679 18.94129944 C34.72555746 21.14681026 33.84958193 23.3514994 32.97167969 25.55541992 C31.63210732 28.91965051 30.29992271 32.28673513 28.96875 35.65429688 C28.11762591 37.79965315 27.2660774 39.9448411 26.4140625 42.08984375 C26.0170816 43.09313217 25.62010071 44.09642059 25.21109009 45.13011169 C18.85850822 61.04618997 18.85850822 61.04618997 12.13671875 65.1328125 C9.6782321 66.13058953 7.89128246 66.20268478 5.25 66.125 C4.45078125 66.10695313 3.6515625 66.08890625 2.828125 66.0703125 C2.22484375 66.04710937 1.6215625 66.02390625 1 66 C1 63.69 1 61.38 1 59 C1.66386719 58.97164062 2.32773437 58.94328125 3.01171875 58.9140625 C7.17039471 58.46480408 10.02912029 58.15082724 12.8125 54.8515625 C15.54109491 49.6889369 16.27214427 46.74986064 15 41 C13.98199546 37.94084831 12.80753677 34.95035737 11.62109375 31.953125 C11.28956802 31.10071228 10.9580423 30.24829956 10.61647034 29.37005615 C9.56224666 26.66121303 8.5004653 23.95542356 7.4375 21.25 C6.37181816 18.52997855 5.30782825 15.8093341 4.24781799 13.08709717 C3.58916825 11.39631301 2.92710411 9.70685426 2.26133728 8.01885986 C0 2.2240657 0 2.2240657 0 0 Z " fill="#F2F5F2" transform="translate(727,817)"/>
<path d="M0 0 C3.34031416 2.25277002 5.8989761 4.61426882 7.28686523 8.48339844 C7.86842935 11.86433791 7.80955977 15.22184664 7.78515625 18.640625 C7.7837413 19.38963074 7.78232635 20.13863647 7.78086853 20.91033936 C7.77528659 23.29443412 7.76273745 25.67843378 7.75 28.0625 C7.74498266 29.68229031 7.74042016 31.30208209 7.73632812 32.921875 C7.72532308 36.88545312 7.70807091 40.84896045 7.6875 44.8125 C5.0475 44.8125 2.4075 44.8125 -0.3125 44.8125 C-0.32708252 43.86930908 -0.34166504 42.92611816 -0.35668945 41.9543457 C-0.41789606 38.44091339 -0.49207508 34.92824554 -0.57495117 31.4152832 C-0.60811916 29.89748379 -0.63617632 28.37956344 -0.65893555 26.86157227 C-0.69263278 24.67411981 -0.74495204 22.48776736 -0.80078125 20.30078125 C-0.82696533 18.98634033 -0.85314941 17.67189941 -0.88012695 16.31762695 C-1.33146667 12.65874257 -2.09777411 10.72439784 -4.3125 7.8125 C-7.54109847 6.19820077 -10.82243653 6.21679343 -14.3125 6.8125 C-17.33758145 8.54852105 -19.73040069 10.64830137 -21.3125 13.8125 C-21.46770557 16.13523159 -21.56269167 18.46209313 -21.62890625 20.7890625 C-21.64968735 21.47431 -21.67046844 22.1595575 -21.69187927 22.86557007 C-21.75730185 25.05611069 -21.81622554 27.24677189 -21.875 29.4375 C-21.91819218 30.9218875 -21.9618067 32.40626278 -22.00585938 33.890625 C-22.11297553 37.53112084 -22.21426362 41.17175251 -22.3125 44.8125 C-24.9525 44.8125 -27.5925 44.8125 -30.3125 44.8125 C-30.3125 29.9625 -30.3125 15.1125 -30.3125 -0.1875 C-27.6725 -0.1875 -25.0325 -0.1875 -22.3125 -0.1875 C-21.9825 1.7925 -21.6525 3.7725 -21.3125 5.8125 C-20.57 5.02875 -19.8275 4.245 -19.0625 3.4375 C-13.36242811 -2.00347772 -7.35976268 -2.63840549 0 0 Z " fill="#F3F9F4" transform="translate(1071.3125,817.1875)"/>
<path d="M0 0 C3.34031416 2.25277002 5.8989761 4.61426882 7.28686523 8.48339844 C7.86842935 11.86433791 7.80955977 15.22184664 7.78515625 18.640625 C7.7837413 19.38963074 7.78232635 20.13863647 7.78086853 20.91033936 C7.77528659 23.29443412 7.76273745 25.67843378 7.75 28.0625 C7.74498266 29.68229031 7.74042016 31.30208209 7.73632812 32.921875 C7.72532308 36.88545312 7.70807091 40.84896045 7.6875 44.8125 C5.0475 44.8125 2.4075 44.8125 -0.3125 44.8125 C-0.32708252 43.86930908 -0.34166504 42.92611816 -0.35668945 41.9543457 C-0.41789606 38.44091339 -0.49207508 34.92824554 -0.57495117 31.4152832 C-0.60811916 29.89748379 -0.63617632 28.37956344 -0.65893555 26.86157227 C-0.69263278 24.67411981 -0.74495204 22.48776736 -0.80078125 20.30078125 C-0.82696533 18.98634033 -0.85314941 17.67189941 -0.88012695 16.31762695 C-1.33146667 12.65874257 -2.09777411 10.72439784 -4.3125 7.8125 C-7.54109847 6.19820077 -10.82243653 6.21679343 -14.3125 6.8125 C-17.33758145 8.54852105 -19.73040069 10.64830137 -21.3125 13.8125 C-21.46770557 16.13523159 -21.56269167 18.46209313 -21.62890625 20.7890625 C-21.64968735 21.47431 -21.67046844 22.1595575 -21.69187927 22.86557007 C-21.75730185 25.05611069 -21.81622554 27.24677189 -21.875 29.4375 C-21.91819218 30.9218875 -21.9618067 32.40626278 -22.00585938 33.890625 C-22.11297553 37.53112084 -22.21426362 41.17175251 -22.3125 44.8125 C-24.9525 44.8125 -27.5925 44.8125 -30.3125 44.8125 C-30.3125 29.9625 -30.3125 15.1125 -30.3125 -0.1875 C-27.6725 -0.1875 -25.0325 -0.1875 -22.3125 -0.1875 C-21.9825 1.7925 -21.6525 3.7725 -21.3125 5.8125 C-20.57 5.02875 -19.8275 4.245 -19.0625 3.4375 C-13.36242811 -2.00347772 -7.35976268 -2.63840549 0 0 Z " fill="#F3F9F4" transform="translate(1020.3125,817.1875)"/>
<path d="M0 0 C3.34031416 2.25277002 5.8989761 4.61426882 7.28686523 8.48339844 C7.86842935 11.86433791 7.80955977 15.22184664 7.78515625 18.640625 C7.7837413 19.38963074 7.78232635 20.13863647 7.78086853 20.91033936 C7.77528659 23.29443412 7.76273745 25.67843378 7.75 28.0625 C7.74498266 29.68229031 7.74042016 31.30208209 7.73632812 32.921875 C7.72532308 36.88545312 7.70807091 40.84896045 7.6875 44.8125 C5.0475 44.8125 2.4075 44.8125 -0.3125 44.8125 C-0.32708252 43.86930908 -0.34166504 42.92611816 -0.35668945 41.9543457 C-0.41789606 38.44091339 -0.49207508 34.92824554 -0.57495117 31.4152832 C-0.60811916 29.89748379 -0.63617632 28.37956344 -0.65893555 26.86157227 C-0.69263278 24.67411981 -0.74495204 22.48776736 -0.80078125 20.30078125 C-0.82696533 18.98634033 -0.85314941 17.67189941 -0.88012695 16.31762695 C-1.33146667 12.65874257 -2.09777411 10.72439784 -4.3125 7.8125 C-7.54109847 6.19820077 -10.82243653 6.21679343 -14.3125 6.8125 C-17.33758145 8.54852105 -19.73040069 10.64830137 -21.3125 13.8125 C-21.46770557 16.13523159 -21.56269167 18.46209313 -21.62890625 20.7890625 C-21.64968735 21.47431 -21.67046844 22.1595575 -21.69187927 22.86557007 C-21.75730185 25.05611069 -21.81622554 27.24677189 -21.875 29.4375 C-21.91819218 30.9218875 -21.9618067 32.40626278 -22.00585938 33.890625 C-22.11297553 37.53112084 -22.21426362 41.17175251 -22.3125 44.8125 C-24.9525 44.8125 -27.5925 44.8125 -30.3125 44.8125 C-30.3125 29.9625 -30.3125 15.1125 -30.3125 -0.1875 C-27.6725 -0.1875 -25.0325 -0.1875 -22.3125 -0.1875 C-21.9825 1.7925 -21.6525 3.7725 -21.3125 5.8125 C-20.57 5.02875 -19.8275 4.245 -19.0625 3.4375 C-13.36242811 -2.00347772 -7.35976268 -2.63840549 0 0 Z " fill="#F3F9F4" transform="translate(712.3125,817.1875)"/>
<path d="M0 0 C2.64 0 5.28 0 8 0 C8.01458252 0.87213135 8.02916504 1.7442627 8.04418945 2.64282227 C8.10557372 5.90659996 8.17978388 9.16957957 8.26245117 12.43286133 C8.29551994 13.8399778 8.32360704 15.24722116 8.34643555 16.65454102 C8.38031799 18.68820824 8.43264218 20.72073135 8.48828125 22.75390625 C8.51446533 23.97408447 8.54064941 25.1942627 8.56762695 26.45141602 C9.07178464 30.58915285 10.105273 33.30143483 12 37 C15.47531087 38.73765543 19.2088001 38.59585352 23 38 C26.28175318 35.47031526 27.69243777 33.92268669 29 30 C29.15145099 27.7174301 29.24886979 25.43112294 29.31640625 23.14453125 C29.33718735 22.48289474 29.35796844 21.82125824 29.37937927 21.13957214 C29.44464727 19.03065148 29.50365344 16.92160865 29.5625 14.8125 C29.60570689 13.38084685 29.64932188 11.94920596 29.69335938 10.51757812 C29.80030506 7.01184846 29.90163641 3.50598214 30 0 C32.64 0 35.28 0 38 0 C38 14.85 38 29.7 38 45 C35.36 45 32.72 45 30 45 C29.505 42.525 29.505 42.525 29 40 C28.05125 40.804375 27.1025 41.60875 26.125 42.4375 C21.94023971 45.98544894 19.06048555 46.3482397 13.609375 46.27734375 C9.42017417 45.83208438 7.34274349 44.59233169 4 42 C0.36360388 36.1817662 -0.12452103 31.3792991 -0.09765625 24.609375 C-0.0962413 23.90476135 -0.09482635 23.20014771 -0.09336853 22.47418213 C-0.08778933 20.23274416 -0.07524073 17.99140757 -0.0625 15.75 C-0.05748231 14.22656395 -0.05291987 12.70312632 -0.04882812 11.1796875 C-0.03782674 7.45309228 -0.02057646 3.72655604 0 0 Z " fill="#F1F8F7" transform="translate(1358,817)"/>
<path d="M0 0 C4.02774709 2.2572313 6.53389586 4.60168759 8 9 C9.13590629 24.86544526 9.13590629 24.86544526 4 31 C-0.65017402 33.92267956 -5.69791164 33.84623727 -11 33 C-15.35812522 30.82866456 -17.51745121 28.11196025 -19.4375 23.6875 C-20.49066954 16.7833886 -21.1071794 11.02386312 -17 5 C-12.16560066 -0.55955924 -7.21868346 -1.50432767 0 0 Z " fill="#050303" transform="translate(654,823)"/>
<path d="M0 0 C4.27025371 1.76380044 6.00983762 3.8858828 8 8 C8.31540185 10.74768999 8.46546861 13.19911849 8.4375 15.9375 C8.4674707 16.97293945 8.4674707 16.97293945 8.49804688 18.02929688 C8.49316671 23.1778715 7.25667984 26.06794542 4 30 C1.0773712 32.78149582 -0.92409258 33.43131601 -4.9375 33.4375 C-8.27385413 33.31483992 -9.91388431 33.04397397 -12.9375 31.5 C-17.44353085 26.03814443 -18.5383299 20.31893442 -18.28125 13.32421875 C-17.68749234 8.41747141 -15.64436445 5.70573249 -12.375 2.125 C-8.05336525 -0.59602929 -4.97535215 -0.83688918 0 0 Z " fill="#050305" transform="translate(1329,823)"/>
<path d="M0 0 C3.58467018 1.78852971 5.60942443 4.20109543 7.375 7.8125 C8.7935514 15.04711212 8.31515053 21.36969895 5 28 C2.38861526 31.12092322 0.59546273 32.69062341 -3.4375 33.47265625 C-8.04176249 33.73986791 -10.27437495 33.55933598 -14 30.6875 C-17.53630682 25.93558771 -18.29485782 23.63291455 -18.3125 17.6875 C-18.32925781 16.39199219 -18.34601562 15.09648438 -18.36328125 13.76171875 C-17.84864642 8.43275804 -16.33636395 5.2090912 -12.375 1.625 C-8.06768358 -0.44889309 -4.69555358 -0.96599045 0 0 Z " fill="#050304" transform="translate(916,823)"/>
<path d="M0 0 C0 4.29 0 8.58 0 13 C3.63 13 7.26 13 11 13 C11 15.31 11 17.62 11 20 C7.37 20 3.74 20 0 20 C0.1179762 24.25435079 0.2422037 28.50845821 0.37231445 32.76245117 C0.4157163 34.2106424 0.45738744 35.65888654 0.49731445 37.10717773 C0.55489062 39.18489559 0.61862028 41.26234573 0.68359375 43.33984375 C0.72025146 44.59144287 0.75690918 45.84304199 0.79467773 47.13256836 C0.67803906 49.89630504 0.67803906 49.89630504 2 51 C3.51928038 51.07179964 5.04167482 51.08392007 6.5625 51.0625 C7.38878906 51.05347656 8.21507812 51.04445313 9.06640625 51.03515625 C9.70449219 51.02355469 10.34257813 51.01195312 11 51 C11 53.31 11 55.62 11 58 C6.01889727 59.66036758 1.04083721 59.79858847 -3.875 57.875 C-7.46890267 54.70390941 -8.87044964 51.30664774 -9.34057617 46.56494141 C-9.32486572 45.33952637 -9.30915527 44.11411133 -9.29296875 42.8515625 C-9.28872391 42.19417084 -9.28447906 41.53677917 -9.28010559 40.85946655 C-9.26344977 38.78087609 -9.2258262 36.70329226 -9.1875 34.625 C-9.17243605 33.20704536 -9.15875065 31.78907536 -9.14648438 30.37109375 C-9.11359038 26.9137411 -9.06190165 23.45696897 -9 20 C-11.31 20 -13.62 20 -16 20 C-16 17.69 -16 15.38 -16 13 C-13.69 13 -11.38 13 -9 13 C-9 9.37 -9 5.74 -9 2 C-3.375 0 -3.375 0 0 0 Z " fill="#EBECEA" transform="translate(1511,804)"/>
<path d="M0 0 C0 2.31 0 4.62 0 7 C-0.69738281 6.83886719 -1.39476562 6.67773438 -2.11328125 6.51171875 C-5.18696721 5.96685696 -8.0672948 5.83188016 -11.1875 5.8125 C-12.75564453 5.79123047 -12.75564453 5.79123047 -14.35546875 5.76953125 C-17.15678221 5.72808511 -17.15678221 5.72808511 -19 8 C-19.16677282 11.58343976 -19.16677282 11.58343976 -19 15 C-17.824375 15.3403125 -17.824375 15.3403125 -16.625 15.6875 C-9.18376139 18.38174157 -2.20011331 20.99981115 2 28 C2.53763624 31.83065824 2.36532395 34.12728167 0.875 37.6875 C-2.10981356 41.36877006 -5.52731499 43.509105 -10 45 C-12.10163415 45.12065456 -14.20744033 45.17536009 -16.3125 45.1875 C-17.42238281 45.20167969 -18.53226563 45.21585938 -19.67578125 45.23046875 C-23.0961836 44.99333157 -25.80973443 44.22108501 -29 43 C-29 40.03 -29 37.06 -29 34 C-28.21625 34.474375 -27.4325 34.94875 -26.625 35.4375 C-21.16659747 37.79025971 -15.79226418 38.56984983 -9.9375 37.375 C-7.80806539 36.11048187 -7.80806539 36.11048187 -6.9375 33.625 C-6.73108898 30.90243948 -6.73108898 30.90243948 -8.6640625 28.9921875 C-11.17198631 26.85332271 -13.39713959 25.74819234 -16.4375 24.5 C-25.77605499 20.44789003 -25.77605499 20.44789003 -28 16 C-28.68859568 11.08145946 -28.56073284 7.89057569 -25.875 3.625 C-18.42416236 -3.17793872 -9.2777872 -4.01201609 0 0 Z " fill="#F4F5F3" transform="translate(1203,818)"/>
<path d="M0 0 C0 2.31 0 4.62 0 7 C-0.69738281 6.83886719 -1.39476562 6.67773438 -2.11328125 6.51171875 C-5.18696721 5.96685696 -8.0672948 5.83188016 -11.1875 5.8125 C-12.75564453 5.79123047 -12.75564453 5.79123047 -14.35546875 5.76953125 C-17.15678221 5.72808511 -17.15678221 5.72808511 -19 8 C-19.16677282 11.58343976 -19.16677282 11.58343976 -19 15 C-17.824375 15.3403125 -17.824375 15.3403125 -16.625 15.6875 C-9.18376139 18.38174157 -2.20011331 20.99981115 2 28 C2.53763624 31.83065824 2.36532395 34.12728167 0.875 37.6875 C-2.10981356 41.36877006 -5.52731499 43.509105 -10 45 C-12.10163415 45.12065456 -14.20744033 45.17536009 -16.3125 45.1875 C-17.42238281 45.20167969 -18.53226563 45.21585938 -19.67578125 45.23046875 C-23.0961836 44.99333157 -25.80973443 44.22108501 -29 43 C-29 40.03 -29 37.06 -29 34 C-28.21625 34.474375 -27.4325 34.94875 -26.625 35.4375 C-21.16659747 37.79025971 -15.79226418 38.56984983 -9.9375 37.375 C-7.80806539 36.11048187 -7.80806539 36.11048187 -6.9375 33.625 C-6.73108898 30.90243948 -6.73108898 30.90243948 -8.6640625 28.9921875 C-11.17198631 26.85332271 -13.39713959 25.74819234 -16.4375 24.5 C-25.77605499 20.44789003 -25.77605499 20.44789003 -28 16 C-28.68859568 11.08145946 -28.56073284 7.89057569 -25.875 3.625 C-18.42416236 -3.17793872 -9.2777872 -4.01201609 0 0 Z " fill="#F4F5F3" transform="translate(1165,818)"/>
<path d="M0 0 C2.64 0 5.28 0 8 0 C8 21.78 8 43.56 8 66 C5.36 66 2.72 66 0 66 C0 44.22 0 22.44 0 0 Z " fill="#F5FFF5" transform="translate(1456,796)"/>
<path d="M0 0 C0 2.64 0 5.28 0 8 C-0.60328125 7.95359375 -1.2065625 7.9071875 -1.828125 7.859375 C-6.94101481 7.55326728 -6.94101481 7.55326728 -11.4375 9.6875 C-14.52088077 14.25090354 -15.2641548 18.14165003 -15.4140625 23.61328125 C-15.47207031 25.4840332 -15.47207031 25.4840332 -15.53125 27.39257812 C-15.57765625 29.33293945 -15.57765625 29.33293945 -15.625 31.3125 C-15.68300781 33.28186523 -15.68300781 33.28186523 -15.7421875 35.29101562 C-15.83633117 38.52720437 -15.92196352 41.76338935 -16 45 C-18.64 45 -21.28 45 -24 45 C-24 30.15 -24 15.3 -24 0 C-21.36 0 -18.72 0 -16 0 C-15.67 1.98 -15.34 3.96 -15 6 C-14.13375 4.824375 -14.13375 4.824375 -13.25 3.625 C-8.96213398 -1.37751036 -6.40647759 -1.23201492 0 0 Z " fill="#EFF7F5" transform="translate(543,817)"/>
<path d="M0 0 C2.64 0 5.28 0 8 0 C8 14.85 8 29.7 8 45 C5.36 45 2.72 45 0 45 C0 30.15 0 15.3 0 0 Z " fill="#F5FEF5" transform="translate(1478,817)"/>
<path d="M0 0 C0.31774533 4.6073073 0.42909733 7.1253016 -1.625 11.3125 C-4.31370796 14.35498532 -6.14825136 15.71608379 -10 17 C-13.76598971 16.93616967 -16.0185267 16.82317115 -18.9375 14.375 C-20.46899815 10.95165118 -20.59516262 8.70323411 -20 5 C-13.86742554 -0.4194844 -7.73381456 -0.15164342 0 0 Z " fill="#09070B" transform="translate(1435,840)"/>
<path d="M0 0 C0.31774533 4.6073073 0.42909733 7.1253016 -1.625 11.3125 C-4.31370796 14.35498532 -6.14825136 15.71608379 -10 17 C-13.76598971 16.93616967 -16.0185267 16.82317115 -18.9375 14.375 C-20.46899815 10.95165118 -20.59516262 8.70323411 -20 5 C-13.86742554 -0.4194844 -7.73381456 -0.15164342 0 0 Z " fill="#09070B" transform="translate(498,840)"/>
<path d="M0 0 C3.84628227 0.04952295 5.01697647 0.21806579 8.3125 2.4375 C10.25 5.375 10.25 5.375 11.25 12.375 C3.33 12.375 -4.59 12.375 -12.75 12.375 C-10.85569463 6.69208388 -9.95236062 5.14634927 -5.75 1.375 C-4.10843264 -0.26656736 -2.25784199 0.08684008 0 0 Z " fill="#060506" transform="translate(1109.75,822.625)"/>
<path d="M0 0 C3.84628227 0.04952295 5.01697647 0.21806579 8.3125 2.4375 C10.25 5.375 10.25 5.375 11.25 12.375 C3.33 12.375 -4.59 12.375 -12.75 12.375 C-10.85569463 6.69208388 -9.95236062 5.14634927 -5.75 1.375 C-4.10843264 -0.26656736 -2.25784199 0.08684008 0 0 Z " fill="#060506" transform="translate(960.75,822.625)"/>
<path d="M0 0 C2.64 0 5.28 0 8 0 C6.20645194 7.40315583 4.26858827 14.72764611 2 22 C0.02 22 -1.96 22 -4 22 C-3.3622098 14.47407567 -1.80110167 7.32901118 0 0 Z " fill="#E7EEED" transform="translate(1214,852)"/>
<path d="M0 0 C2.64 0 5.28 0 8 0 C6.20645194 7.40315583 4.26858827 14.72764611 2 22 C0.02 22 -1.96 22 -4 22 C-3.3622098 14.47407567 -1.80110167 7.32901118 0 0 Z " fill="#E7EEED" transform="translate(776,852)"/>
<path d="M0 0 C3.3 0 6.6 0 10 0 C10.32152515 3.53677664 10.4131192 5.3962104 8.375 8.375 C5.3962104 10.4131192 3.53677664 10.32152515 0 10 C0 6.7 0 3.4 0 0 Z " fill="#0F0F0F" transform="translate(330,310)"/>
<path d="M0 0 C2.4375 0.8125 2.4375 0.8125 4.4375 2.8125 C4.6875 5.3125 4.6875 5.3125 4.4375 7.8125 C2.4375 9.8125 2.4375 9.8125 -0.5625 10.0625 C-3.5625 9.8125 -3.5625 9.8125 -5.5625 7.8125 C-5.93046448 4.94237704 -5.93759409 3.40475382 -4.375 0.9375 C-2.5625 -0.1875 -2.5625 -0.1875 0 0 Z " fill="#EBF2F2" transform="translate(1482.5625,796.1875)"/>
<path d="M0 0 C3.3 0 6.6 0 10 0 C10 1.65 10 3.3 10 5 C6.7 5 3.4 5 0 5 C0 3.35 0 1.7 0 0 Z " fill="#0E0E0E" transform="translate(1040,755)"/>
<path d="M0 0 C3.3 0 6.6 0 10 0 C10 1.65 10 3.3 10 5 C6.7 5 3.4 5 0 5 C0 3.35 0 1.7 0 0 Z " fill="#0A0A0A" transform="translate(940,755)"/>
<path d="M0 0 C1.65 0 3.3 0 5 0 C5 3.3 5 6.6 5 10 C3.35 10 1.7 10 0 10 C0 6.7 0 3.4 0 0 Z " fill="#0A0A0A" transform="translate(740,540)"/>
<path d="M0 0 C1.65 0 3.3 0 5 0 C5 3.3 5 6.6 5 10 C3.35 10 1.7 10 0 10 C0 6.7 0 3.4 0 0 Z " fill="#0A0A0A" transform="translate(1245,440)"/>
</svg>
